<svg viewBox="0 0 292 338" xmlns="http://www.w3.org/2000/svg" fill-rule="evenodd" clip-rule="evenodd" stroke-linejoin="round" stroke-miterlimit="2"><path d="M231.2 173.738l-98.264-42.58v94.818l98.264 42.581v-94.819z" fill="#00b0eb"/><path d="M34.673 173.738l98.263-42.58v94.818l-98.263 42.581v-94.819z" fill="#009ee3"/><path d="M132.936 216.319l-98.263-42.581v94.819l98.263 42.581v-94.819z" fill="#a1daf8"/><path d="M132.936 216.319l98.264-42.581v94.819l-98.264 42.581v-94.819z" fill="#5ac5f2"/><path d="M231.2 268.557l-98.264 42.581 60.742 26.321 97.415-42.644-59.893-26.258z" fill="url(#_Linear1)"/><g><path d="M265.873 132.124l-98.208-42.706-34.729 41.74 98.264 42.58 34.673-41.614z" fill="#a1daf8"/><path d="M0 132.124l98.208-42.706 34.728 41.74-98.263 42.58L0 132.124z" fill="#d4edfc"/><path d="M132.936 216.319l-32.784-14.156L.5 30.125h265.373L166.14 202.302l-33.204 14.017z" fill="url(#_Linear2)"/><path d="M156.329 156.255l1.77-4.772-14.49 39.068-40.677-15.087 18.859-50.847 24.126 8.949 10.412 22.689z" fill="#fff"/><path d="M145.917 133.566l10.412 22.689-16.55-6.139 6.138-16.55zM146.12 13.063l-1.183-4.95 9.69 40.526-42.195 10.09L99.82 5.985 124.846 0l21.274 13.063z" fill="#a1daf8"/><path d="M124.846 0l21.274 13.063-17.168 4.105L124.846 0z" fill="#5ac5f2"/><g><path d="M117.194 44.523l-61.662 4.568 6.104 40.956 55.594-4.541-.036-40.983zm-36.308-3.171l-20.869 1.546-4.485 6.193 29.916-2.216-4.562-5.523z" fill="#5ac5f2"/><path d="M115.203 48.341l-56.646 4.197 2.51 33.88 56.646-4.197-2.51-33.88z" fill="#fff"/><path d="M115.355 50.394l-56.646 4.197 2.51 33.879 56.317-4.387-2.181-33.689z" fill="#a1daf8"/><path d="M116.89 54.874l-59.096 4.275-.213-2.868 59.089-4.377.22 2.97z" fill="#fff"/><path d="M117.536 85.905l-.499 9.493-53.869 3.788-1.804-9.119 56.172-4.162zm0 0l-56.172 4.162-.715-3.619-1.331-6.73-.054-.271-3.978-20.117 2.475-.179.033-.002 59.037-4.271.059-.004 2.286-.165-.954 18.143-.025.475-.467 8.893-.194 3.685z" fill="#00b0eb"/></g><g><path d="M212.309 100.522l-55.821-26.59-14.995 38.598 50.537 23.606 20.279-35.614zm-29.964-20.747l-18.893-9-6.964 3.157 27.082 12.9-1.225-7.057z" fill="#5ac5f2"/><path d="M208.688 102.852l-51.282-24.427-14.609 30.671 51.281 24.427 14.61-30.671z" fill="#fff"/><path d="M207.803 104.71l-51.282-24.427-14.609 30.671 51.09 24.098 14.801-30.342z" fill="#a1daf8"/><path d="M206.916 109.362l-53.448-25.573 1.236-2.596 53.493 25.48-1.281 2.689z" fill="#fff"/><path d="M192.099 136.635l-5.138 7.998-48.667-23.406 2.953-8.814 50.852 24.222zm0 0l-50.852-24.222 1.172-3.498 2.179-6.506.088-.261 6.514-19.444 2.238 1.071.03.014 53.394 25.547.054.026 2.067.989-9.82 15.286-.257.401-4.813 7.492-1.994 3.105z" fill="#00b0eb"/></g><path d="M231.2 174.159l-98.264 42.16 17.663-48.781 98.264-42.161-17.663 48.782z" fill="#009ee3"/><path d="M34.673 173.738l98.263 42.161-17.01-48.781-98.263-42.161 17.01 48.781z" fill="#5ac5f2"/></g><g><path d="M69.643 216.096l26.53 50.387-18.651-35.424-7.879-14.963zm-.385 11.975v21.984l-7.879 1.89v-38.837l7.879 14.963zm25.306 34.691l5.81 2.773 2.558 1.222-6.78 1.8-7.452-3.56-.003-.006-27.318-51.883v-5.876l2.828-.884.272-.061.313-.071 29.772 56.546z" fill="#241f4b"/><path d="M102.932 266.757l-2.557-1.222 2.557-.577v1.799zm-2.557-1.222h-.001l-5.81-2.773-24.921-47.332.011-6.891 4.773 2.28 20.241 38.443v-28.634l8.264 3.948v40.382l-2.557.577zm-30.732-57.001v6.896l-4.905-9.239 4.905 2.343z" fill="#009ee3"/><path d="M69.654 208.539l-.011 6.891v-6.896l.011.005z" fill="#009ee3"/><path d="M94.668 249.262v-28.634l-7.876 1.869v12.121l7.876 14.644z" fill="#241f4b"/><path d="M69.643 255.893l-8.264-3.948 7.879-1.89V227.99l8.264 15.696v10.354l-7.879 1.853v-27.09 27.09z" fill="#009ee3"/></g><g><path d="M169.556 231.806l26.529 25.935-18.651-18.233-7.878-7.702zm-.386 12.331v21.983l-7.878 9.152v-38.837l7.878 7.702zm25.307 11.365l5.809-2.581 2.559-1.137-6.78 8.05-7.453 3.308-.003-.003-27.317-26.704v-5.877l2.827-3.489.272-.312.313-.36 29.773 29.105z" fill="#241f4b"/><path d="M202.845 251.784l-2.558 1.136 2.558-2.935v1.799zm-2.558 1.136l-.001.001-5.809 2.581-24.921-24.362.01-6.901 4.774-2.12 20.241 19.788v-28.634l8.264-3.669v40.381l-2.558 2.935zm-30.731-28.676v6.896l-4.905-4.719 4.905-2.177z" fill="#009ee3"/><path d="M169.566 224.239l-.01 6.901v-6.896l.01-.005z" fill="#009ee3"/><path d="M194.581 241.907v-28.634l-7.877 9.128v12.121l7.877 7.385z" fill="#241f4b"/><path d="M169.556 271.603l-8.264 3.669 7.878-9.152v-22.065l8.264 8.079v10.354l-7.878 9.115v-27.09 27.09z" fill="#009ee3"/></g><defs><linearGradient id="_Linear1" x1="0" y1="0" x2="1" y2="0" gradientUnits="userSpaceOnUse" gradientTransform="scale(-44.2106 44.2106) rotate(-65.431 3.28 7.48)"><stop offset="0" stop-color="#fff" stop-opacity="0"/><stop offset=".58" stop-color="#51bdec" stop-opacity=".68"/><stop offset="1" stop-color="#009ee3"/></linearGradient><linearGradient id="_Linear2" x1="0" y1="0" x2="1" y2="0" gradientUnits="userSpaceOnUse" gradientTransform="matrix(0 -229.068 269.459 0 133.186 259.193)"><stop offset="0" stop-color="#5ac5f2" stop-opacity=".63"/><stop offset=".57" stop-color="#7ad0f5" stop-opacity=".51"/><stop offset=".8" stop-color="#bee8fa" stop-opacity=".25"/><stop offset="1" stop-color="#fff" stop-opacity="0"/></linearGradient></defs></svg>